`                      __  ___  ___  ___   __   __    __   
                      /  (   (   (  ,) (  ) (  )  (  )  
                     ( () )) ) )) ) )) , /__  )(__  )(__ 
                      __/(___/(___/(___/(_)(_)(____)(____)
                                 -links.com
 


X-Men Origins: Wolverine is a 2009 American superhero film based on the Marvel Comics' fictional character Wolverine. It was released worldwide on May 1, 2009. The film is directed by Gavin Hood and stars Hugh Jackman as the title character, along with Liev Schreiber, Danny Huston, will.i.am, Lynn Collins, Taylor Kitsch, and Ryan Reynolds. The film is the fourth installment of the X-Men film series, and serves as a prequel to the previous installments, being primarily set roughly fifteen years before the film X-Men. The film focuses on the violent past of the mutant Wolverine and his relationship with his half-brother Victor Creed. The plot also details Wolverine's early encounters with Colonel William Stryker, his time with Team X, and the bonding of Wolverine's skeleton with the indestructible metal adamantium during the Weapon X program.


                                    +-+-+-+-+
                                    |c|a|s|t|
                                    +-+-+-+-+
                                         
                  Actor                              Role

                  Hugh Jackman ...................  Logan / Wolverine 

                  Liev Schreiber .................  Victor Creed 
                  
                  Danny Huston ...................  William Stryker 
               
                  Will i Am ......................  John Wraith (as Will.i.am) 
                
                  Lynn Collins ...................  Kayla Silverfox 

                  Kevin Durand ...................  Fred Dukes / Blob 

                  Dominic Monaghan ...............  Chris Bradley / Bolt 

                  Taylor Kitsch ..................  Remy LeBeau / Gambit 

                  Daniel Henney ..................  David North / Agent Zero 

                  Ryan Reynolds ..................  Wade Wilson / Deadpool 


General
Complete name                    : X-Men Origins Wolverine 
Format                           : AVI
Format/Info                      : Audio Video Interleave
File size                        : 833 MiB
Duration                         : 1h 42mn
Overall bit rate                 : 1 132 Kbps

Video
Format                           : MPEG-4 Visual
Format profile                   : Streaming Video@L1
Format settings, BVOP            : Yes
Format settings, QPel            : No
Format settings, GMC             : No warppoints
Format settings, Matrix          : Default
Muxing mode                      : Packed bitstream
Codec ID                         : XVID
Codec ID/Hint                    : XviD
Duration                         : 1h 42mn
Bit rate                         : 928 Kbps
Width                            : 1 024 pixels
Height                           : 582 pixels
Display aspect ratio             : 16/9
Frame rate                       : 29.970 fps
Resolution                       : 24 bits
Colorimetry                      : 4:2:0
Scan type                        : Progressive
Bits/(Pixel*Frame)               : 0.052
Stream size                      : 683 MiB (82%)
Writing library                  : XviD 1.1.0 (UTC 2005-11-22)

Audio
Format                           : MPEG Audio
Format version                   : Version 1
Format profile                   : Layer 3
Codec ID                         : 55
Codec ID/Hint                    : MP3
Duration                         : 1h 42mn
Bit rate mode                    : Constant
Bit rate                         : 192 Kbps
Channel(s)                       : 2 channels
Sampling rate                    : 44.1 KHz
Resolution                       : 16 bits
Video delay                      : 26ms
Stream size                      : 141 MiB (17%)
Alignment                        : Split accross interleaves
Interleave, duration             : 33 ms (1.00 video frame)
Title                            : Audio Stream
Writing library                  : LAME3.92

For more oddball torrents  http://thepiratebay.org/user/oddball-links `                                                                                                            Please seed after downloading `                                                                                            :::===  :::===== :::===== :::====       :::= === :::====  :::====
        :::     :::      :::      :::  ===      :::===== :::  === :::====
         =====  ======   ======   ===  ===      ======== ===  ===   ===  
            === ===      ===      ===  ===      === ==== ===  ===   ===  
        ======  ======== ======== =======       ===  ===  ======    ===  
                                                                         
                  :::=====  :::====  :::===== :::===== :::==== 
                  :::       :::  === :::      :::      :::  ===
                  === ===== =======  ======   ======   ===  ===
                  ===   === === ===  ===      ===      ===  ===
                   =======  ===  === ======== ======== =======